<?xml version="1.0" encoding="utf-8"?>
<!-- Generator: Adobe Illustrator 21.1.0, SVG Export Plug-In . SVG Version: 6.00 Build 0)  -->
<svg version="1.1" id="Layer_1" xmlns="http://www.w3.org/2000/svg" xmlns:xlink="http://www.w3.org/1999/xlink" x="0px" y="0px"
	 viewBox="0 0 512 450.5" style="enable-background:new 0 0 512 450.5;" xml:space="preserve">
<g>
	<g>
		<path d="M213.8,271.8v31.3l-111.4-48.3V228l111.4-48.3v31.5l-77.6,29.9L213.8,271.8z"/>
		<path d="M282.6,179.2l-31,127.6c-1,4.2-1.9,7.5-2.7,10c-0.8,2.4-1.9,4.3-3.5,5.7c-1.6,1.4-3.9,2-6.9,2c-7.5,0-11.3-3.3-11.3-9.7
			c0-1.7,0.7-5.9,2.2-12.7l30.9-127.6c1.6-6.8,3.2-11.4,4.6-13.9c1.5-2.5,4.3-3.8,8.6-3.8c3.7,0,6.5,0.9,8.5,2.7s2.9,4.2,2.9,7.3
			C285,169,284.2,173.1,282.6,179.2z"/>
		<path d="M409.6,254.9l-111.4,48.5v-31.3l77.8-30.5l-77.8-30.1v-31.1l111.4,48V254.9z"/>
	</g>
	<path d="M481.3,0H30.8C13.8,0,0,13.8,0,30.7v389.1c0,17,13.8,30.7,30.7,30.7h450.5c17,0,30.7-13.8,30.7-30.7V30.7
		C512,13.8,498.2,0,481.3,0z M404.5,20.5c11.3,0,20.5,9.2,20.5,20.5s-9.2,20.5-20.5,20.5S384,52.3,384,41S393.2,20.5,404.5,20.5z
		 M348.2,20.5c11.3,0,20.5,9.2,20.5,20.5s-9.2,20.5-20.5,20.5s-20.5-9.2-20.5-20.5S336.9,20.5,348.2,20.5z M481.3,419.8H30.8V81.9
		h450.5V419.8L481.3,419.8z M460.8,61.4c-11.3,0-20.5-9.2-20.5-20.5s9.2-20.5,20.5-20.5s20.5,9.2,20.5,20.5
		C481.3,52.3,472.1,61.4,460.8,61.4z"/>
</g>
</svg>
