<?xml version="1.0" encoding="utf-8"?>
<!-- Generator: Adobe Illustrator 21.1.0, SVG Export Plug-In . SVG Version: 6.00 Build 0)  -->
<svg version="1.1" id="レイヤー_1" xmlns="http://www.w3.org/2000/svg" xmlns:xlink="http://www.w3.org/1999/xlink" x="0px"
	 y="0px" viewBox="0 0 500 500" style="enable-background:new 0 0 500 500;" xml:space="preserve">
<g>
	<g>
		<g>
			<path d="M208.6,295.3v30.4l-108.3-47v-26.1l108.3-47v30.6l-75.4,29.1L208.6,295.3z"/>
			<path d="M276,205l-30.3,124.6c-1,4.1-1.9,7.3-2.6,9.8c-0.8,2.3-1.9,4.2-3.4,5.6c-1.6,1.4-3.8,2-6.7,2c-7.3,0-11-3.2-11-9.5
				c0-1.7,0.7-5.8,2.1-12.4l30.2-124.6c1.6-6.6,3.1-11.1,4.5-13.6c1.5-2.4,4.2-3.7,8.4-3.7c3.6,0,6.3,0.9,8.3,2.6
				c2,1.8,2.8,4.1,2.8,7.1C278.4,195.1,277.6,199.1,276,205z"/>
			<path d="M399.7,278.9l-108.3,47.1v-30.4l75.6-29.6l-75.6-29.3v-30.2l108.3,46.7V278.9z"/>
		</g>
		<path d="M470.1,30h-440C13.5,30,0,43.5,0,60v379.9c0,16.6,13.5,30,30,30h440c16.6,0,30-13.5,30-30V60
			C500.1,43.5,486.6,30,470.1,30z M395.1,50c11,0,20,9,20,20s-9,20-20,20s-20-9-20-20S384.1,50,395.1,50z M340.1,50c11,0,20,9,20,20
			s-9,20-20,20s-20-9-20-20S329.1,50,340.1,50z M470.6,440.4H30.7V110.2h439.8V440.4L470.6,440.4z M450.1,90c-11,0-20-9-20-20
			s9-20,20-20s20,9,20,20C470.1,81.1,461.1,90,450.1,90z"/>
	</g>
</g>
</svg>
